<svg width="40" height="40" viewBox="0 0 40 40" fill="none" xmlns="http://www.w3.org/2000/svg">
<path opacity="0.5" d="M20 20C22.7614 20 25 17.7614 25 15C25 12.2386 22.7614 10 20 10C17.2386 10 15 12.2386 15 15C15 17.7614 17.2386 20 20 20Z" stroke="#1C274C" stroke-width="1.5"/>
<path d="M19.9999 36.6663C29.2047 36.6663 36.6666 29.2044 36.6666 19.9997C36.6666 10.7949 29.2047 3.33301 19.9999 3.33301C10.7952 3.33301 3.33325 10.7949 3.33325 19.9997C3.33325 29.2044 10.7952 36.6663 19.9999 36.6663Z" stroke="#1C274C" stroke-width="1.5"/>
<path opacity="0.5" d="M29.9485 33.3333C29.6833 28.5142 28.2078 25 19.9998 25C11.792 25 10.3165 28.5142 10.0513 33.3333" stroke="#1C274C" stroke-width="1.5" stroke-linecap="round"/>
</svg>
