<svg width="18" height="18" viewBox="0 0 18 18" fill="none" xmlns="http://www.w3.org/2000/svg">
<g id="Frame">
<g id="SVGRepo_iconCarrier">
<path id="Vector" fill-rule="evenodd" clip-rule="evenodd" d="M16.5 9C16.5 13.1421 13.1421 16.5 9 16.5C4.85786 16.5 1.5 13.1421 1.5 9C1.5 4.85786 4.85786 1.5 9 1.5C13.1421 1.5 16.5 4.85786 16.5 9ZM6.72722 6.72724C6.94689 6.50757 7.30304 6.50757 7.52272 6.72724L9 8.20447L10.4772 6.72725C10.6969 6.50759 11.053 6.50759 11.2727 6.72725C11.4924 6.94692 11.4924 7.30308 11.2727 7.52272L9.79545 9L11.2727 10.4772C11.4924 10.6969 11.4924 11.053 11.2727 11.2727C11.053 11.4924 10.6969 11.4924 10.4772 11.2727L9 9.79552L7.52272 11.2727C7.30306 11.4924 6.9469 11.4924 6.72724 11.2727C6.50757 11.053 6.50757 10.6969 6.72724 10.4773L8.20447 9L6.72722 7.52272C6.50755 7.30306 6.50755 6.9469 6.72722 6.72724Z" fill="#c89dc7"/>
</g>
</g>
</svg>
