<svg width="26" height="26" viewBox="0 0 26 26" fill="none" xmlns="http://www.w3.org/2000/svg">
<g id="Frame">
<g id="SVGRepo_iconCarrier">
<path id="Vector" d="M7.85414 8.66667C7.85414 9.11539 8.21792 9.47917 8.66664 9.47917C9.11537 9.47917 9.47914 9.11539 9.47914 8.66667H7.85414ZM16.5208 8.66667C16.5208 9.11539 16.8846 9.47917 17.3333 9.47917C17.782 9.47917 18.1458 9.11539 18.1458 8.66667H16.5208ZM9.47914 11.9167C9.47914 11.4679 9.11537 11.1042 8.66664 11.1042C8.21792 11.1042 7.85414 11.4679 7.85414 11.9167H9.47914ZM7.85414 11.9275C7.85414 12.3762 8.21792 12.74 8.66664 12.74C9.11537 12.74 9.47914 12.3762 9.47914 11.9275H7.85414ZM18.1458 11.9167C18.1458 11.4679 17.782 11.1042 17.3333 11.1042C16.8846 11.1042 16.5208 11.4679 16.5208 11.9167H18.1458ZM16.5208 11.9275C16.5208 12.3762 16.8846 12.74 17.3333 12.74C17.782 12.74 18.1458 12.3762 18.1458 11.9275H16.5208ZM7.54153 9.47917H18.4585V7.85417H7.54153V9.47917ZM19.8065 10.7049L20.6318 19.3716L22.2496 19.2176L21.4242 10.5509L19.8065 10.7049ZM19.2839 20.8542H6.71613V22.4792H19.2839V20.8542ZM5.36807 19.3716L6.19346 10.7049L4.57578 10.5509L3.75038 19.2176L5.36807 19.3716ZM6.71613 20.8542C5.91752 20.8542 5.29235 20.1666 5.36807 19.3716L3.75038 19.2176C3.58381 20.9666 4.95919 22.4792 6.71613 22.4792V20.8542ZM20.6318 19.3716C20.7076 20.1666 20.0825 20.8542 19.2839 20.8542V22.4792C21.0408 22.4792 22.4161 20.9666 22.2496 19.2176L20.6318 19.3716ZM18.4585 9.47917C19.1566 9.47917 19.7403 10.0099 19.8065 10.7049L21.4242 10.5509C21.2786 9.02187 19.9944 7.85417 18.4585 7.85417V9.47917ZM7.54153 7.85417C6.0056 7.85417 4.7214 9.02187 4.57578 10.5509L6.19346 10.7049C6.25965 10.0099 6.84337 9.47917 7.54153 9.47917V7.85417ZM9.47914 7.58333C9.47914 5.63883 11.0555 4.0625 13 4.0625V2.4375C10.158 2.4375 7.85414 4.74137 7.85414 7.58333H9.47914ZM13 4.0625C14.9445 4.0625 16.5208 5.63883 16.5208 7.58333H18.1458C18.1458 4.74137 15.842 2.4375 13 2.4375V4.0625ZM7.85414 7.58333V8.66667H9.47914V7.58333H7.85414ZM16.5208 7.58333V8.66667H18.1458V7.58333H16.5208ZM7.85414 11.9167V11.9275H9.47914V11.9167H7.85414ZM16.5208 11.9167V11.9275H18.1458V11.9167H16.5208Z" fill="#5F4D3F"/>
</g>
</g>
</svg>
