<svg width="26" height="26" viewBox="0 0 26 26" fill="none" xmlns="http://www.w3.org/2000/svg">
<g id="Frame">
<g id="SVGRepo_iconCarrier">
<path id="Vector" d="M13 10.8327C15.3932 10.8327 17.3333 8.89258 17.3333 6.49935C17.3333 4.10611 15.3932 2.16602 13 2.16602C10.6067 2.16602 8.66663 4.10611 8.66663 6.49935C8.66663 8.89258 10.6067 10.8327 13 10.8327Z" stroke="#F62929" stroke-width="1.3"/>
<path id="Vector_2" d="M15.1666 22.5693C14.4801 22.686 13.7529 22.7487 13 22.7487C8.8118 22.7487 5.41663 20.8086 5.41663 18.4154C5.41663 16.0222 8.8118 14.082 13 14.082C14.8563 14.082 16.5568 14.4631 17.875 15.0959" stroke="#F62929" stroke-width="1.3"/>
<path id="Vector_3" d="M18.4166 23.8327C20.8098 23.8327 22.7499 21.8926 22.7499 19.4993C22.7499 17.1061 20.8098 15.166 18.4166 15.166C16.0234 15.166 14.0833 17.1061 14.0833 19.4993C14.0833 21.8926 16.0234 23.8327 18.4166 23.8327Z" stroke="#F62929" stroke-width="1.3"/>
<path id="Vector_4" d="M16.972 18.0547L19.861 20.9435M19.8613 18.0547L16.9724 20.9435" stroke="#F62929" stroke-linecap="round" stroke-linejoin="round"/>
</g>
</g>
</svg>
