<svg width="20" height="20" viewBox="0 0 20 20" fill="none" xmlns="http://www.w3.org/2000/svg">
<g id="delete">
<g id="SVGRepo_iconCarrier">
<path id="secondary" d="M13.3327 5.83333V3.33333C13.3327 3.11232 13.2449 2.90036 13.0886 2.74408C12.9323 2.5878 12.7204 2.5 12.4993 2.5H7.49935C7.27834 2.5 7.06637 2.5878 6.91009 2.74408C6.75381 2.90036 6.66602 3.11232 6.66602 3.33333V5.83333" stroke="#5F4D3F" stroke-width="1.5" stroke-linecap="round" stroke-linejoin="round"/>
<path id="primary" d="M3.33301 5.83331H16.6663M14.9997 16.6666V5.83331H4.99967V16.6666C4.99967 16.8877 5.08747 17.0996 5.24375 17.2559C5.40003 17.4122 5.61199 17.5 5.83301 17.5H14.1663C14.3874 17.5 14.5993 17.4122 14.7556 17.2559C14.9119 17.0996 14.9997 16.8877 14.9997 16.6666Z" stroke="#5F4D3F" stroke-width="1.5" stroke-linecap="round" stroke-linejoin="round"/>
</g>
</g>
</svg>
