<svg width="20" height="20" viewBox="0 0 20 20" fill="none" xmlns="http://www.w3.org/2000/svg">
<g id="Frame">
<g id="SVGRepo_iconCarrier">
<g id="xxx-word">
<path id="Vector" d="M12.5 5.3H16.25C16.3296 5.3 16.4059 5.26839 16.4621 5.21213C16.5184 5.15587 16.55 5.07957 16.55 5C16.55 4.92044 16.5184 4.84413 16.4621 4.78787C16.4059 4.73161 16.3296 4.7 16.25 4.7H12.8V1.25C12.8 1.17044 12.7684 1.09413 12.7121 1.03787C12.6559 0.981607 12.5796 0.95 12.5 0.95C12.4204 0.95 12.3441 0.981607 12.2879 1.03787C12.2316 1.09413 12.2 1.17044 12.2 1.25V5C12.2 5.07957 12.2316 5.15587 12.2879 5.21213C12.3441 5.26839 12.4204 5.3 12.5 5.3Z" fill="white" stroke="white" stroke-width="0.1"/>
<path id="Vector_2" d="M16.55 5.00009C16.5501 4.96067 16.5424 4.92162 16.5273 4.88517C16.5123 4.84873 16.4902 4.8156 16.4624 4.78769L16.4624 4.78765L12.7124 1.03764L12.7123 1.0376L16.55 5.00009ZM16.55 5.00009V7.4915C16.55 7.5309 16.5422 7.56991 16.5272 7.60631C16.5121 7.6427 16.49 7.67578 16.4621 7.70363C16.4343 7.73149 16.4012 7.75359 16.3648 7.76866C16.3284 7.78374 16.2894 7.7915 16.25 7.7915C16.1704 7.7915 16.0941 7.75989 16.0379 7.70363C15.9816 7.64737 15.95 7.57107 15.95 7.4915V5.12421M16.55 5.00009L15.95 5.12421M15.95 5.12421L12.3758 1.55H5C4.74804 1.55 4.50641 1.65009 4.32825 1.82825C4.15009 2.00641 4.05 2.24804 4.05 2.5V7.4085C4.05 7.48807 4.01839 7.56437 3.96213 7.62063C3.90587 7.67689 3.82956 7.7085 3.75 7.7085C3.67044 7.7085 3.59413 7.67689 3.53787 7.62063C3.48161 7.56437 3.45 7.48807 3.45 7.4085V2.5C3.45 2.08891 3.6133 1.69467 3.90398 1.40398C4.19467 1.1133 4.58891 0.95 5 0.95L12.4999 0.95L12.5 0.95L15.95 5.12421Z" fill="white" stroke="white" stroke-width="0.1"/>
<path id="Vector_3" d="M5 19.05H15C15.4111 19.05 15.8053 18.8867 16.096 18.596C16.3867 18.3053 16.55 17.9111 16.55 17.5V13.75C16.55 13.6704 16.5184 13.5941 16.4621 13.5379C16.4059 13.4816 16.3296 13.45 16.25 13.45C16.1704 13.45 16.0941 13.4816 16.0379 13.5379C15.9816 13.5941 15.95 13.6704 15.95 13.75V17.5C15.95 17.752 15.8499 17.9936 15.6718 18.1718C15.4936 18.3499 15.252 18.45 15 18.45H5C4.74804 18.45 4.50641 18.3499 4.32825 18.1718C4.15009 17.9936 4.05 17.752 4.05 17.5V13.75C4.05 13.6704 4.01839 13.5941 3.96213 13.5379C3.90587 13.4816 3.82957 13.45 3.75 13.45C3.67043 13.45 3.59413 13.4816 3.53787 13.5379C3.48161 13.5941 3.45 13.6704 3.45 13.75V17.5C3.45 17.9111 3.6133 18.3053 3.90398 18.596C4.19467 18.8867 4.58891 19.05 5 19.05Z" fill="white" stroke="white" stroke-width="0.1"/>
<path id="Vector_4" d="M6.25 14.05H13.75C13.8296 14.05 13.9059 14.0184 13.9621 13.9621C14.0184 13.9059 14.05 13.8296 14.05 13.75C14.05 13.6704 14.0184 13.5941 13.9621 13.5379C13.9059 13.4816 13.8296 13.45 13.75 13.45H6.25C6.17043 13.45 6.09413 13.4816 6.03787 13.5379C5.98161 13.5941 5.95 13.6704 5.95 13.75C5.95 13.8296 5.98161 13.9059 6.03787 13.9621C6.09413 14.0184 6.17043 14.05 6.25 14.05Z" fill="white" stroke="white" stroke-width="0.1"/>
<path id="Vector_5" d="M6.25 16.55H10C10.0796 16.55 10.1559 16.5184 10.2121 16.4621C10.2684 16.4059 10.3 16.3296 10.3 16.25C10.3 16.1704 10.2684 16.0941 10.2121 16.0379C10.1559 15.9816 10.0796 15.95 10 15.95H6.25C6.17043 15.95 6.09413 15.9816 6.03787 16.0379C5.98161 16.0941 5.95 16.1704 5.95 16.25C5.95 16.3296 5.98161 16.4059 6.03787 16.4621C6.09413 16.5184 6.17043 16.55 6.25 16.55Z" fill="white" stroke="white" stroke-width="0.1"/>
<path id="Vector_6" d="M3.76033 7.1082V7.1082H3.76H3.75C3.33891 7.1082 2.94467 7.27151 2.65398 7.56219C2.3633 7.85287 2.2 8.24712 2.2 8.6582V12.4997C2.2 12.9108 2.3633 13.305 2.65398 13.5957C2.94467 13.8864 3.33891 14.0497 3.75 14.0497H16.25C16.25 14.0497 16.25 14.0497 16.25 14.0497C16.4536 14.0498 16.6552 14.0097 16.8433 13.9319C17.0314 13.854 17.2023 13.7398 17.3463 13.5959C17.4903 13.452 17.6045 13.2811 17.6825 13.093C17.7604 12.9049 17.8005 12.7033 17.8005 12.4997V8.7412V8.74106C17.7993 8.33208 17.637 7.94005 17.3487 7.64994C17.0604 7.35983 16.6694 7.19501 16.2605 7.19121L16.2603 7.1912L3.76033 7.1082ZM3.07825 7.98645C3.25641 7.80829 3.49804 7.7082 3.75 7.7082H3.75584H3.756L16.2556 7.7912C16.2556 7.7912 16.2556 7.7912 16.2556 7.7912C16.5064 7.79346 16.7461 7.89447 16.9229 8.07232C17.0997 8.25018 17.1993 8.49057 17.2 8.74135V12.4997C17.2 12.7517 17.0999 12.9933 16.9218 13.1715C16.7436 13.3496 16.502 13.4497 16.25 13.4497H3.75C3.49804 13.4497 3.25641 13.3496 3.07825 13.1715C2.90009 12.9933 2.8 12.7517 2.8 12.4997V8.6582C2.8 8.40625 2.90009 8.16461 3.07825 7.98645Z" fill="white" stroke="white" stroke-width="0.1"/>
<path id="Vector_7" d="M7.62203 11.8498H7.67227L7.67203 11.7995L7.67003 11.385L7.66979 11.3353H7.62003H6.42003V10.6893H7.36203H7.41203V10.6393V10.2528V10.2028H7.36203H6.42003V9.58029H7.60453H7.65453V9.53029V9.13379V9.08379H7.60453H5.88953H5.83953V9.13379V11.7998V11.8498H5.88953H7.62203Z" fill="white" stroke="white" stroke-width="0.1"/>
<path id="Vector_8" d="M9.50904 11.8496H9.59659L9.55211 11.7742L8.90887 10.684L9.44943 9.85445L9.4998 9.77715H9.40754H9.03454H9.00709L8.99236 9.80031L8.66833 10.3096L8.38519 9.80276L8.37088 9.77715H8.34154H7.83154H7.74368L7.78856 9.85268L8.34122 10.783L7.70106 11.7725L7.65114 11.8496H7.74304H8.12604H8.15353L8.16826 11.8264L8.58018 11.1774L8.95682 11.8248L8.97128 11.8496H9.00004H9.50904Z" fill="white" stroke="white" stroke-width="0.1"/>
<path id="Vector_9" d="M10.8751 11.0255L10.8322 11.0211L10.8216 11.0629C10.7911 11.1824 10.7462 11.2665 10.6903 11.3205C10.6356 11.3734 10.5669 11.4008 10.4808 11.4012L10.4808 11.4012L10.4793 11.4012C10.4283 11.403 10.3777 11.3912 10.3328 11.367C10.2879 11.3427 10.2503 11.3069 10.2238 11.2633L10.2238 11.2633L10.2228 11.2616C10.1594 11.1658 10.1246 11.0234 10.1246 10.8282L10.1245 10.8268C10.12 10.669 10.1534 10.5125 10.2221 10.3705L10.2221 10.3705L10.2224 10.3697C10.247 10.3164 10.2869 10.2717 10.337 10.2413C10.3871 10.2108 10.4452 10.196 10.5038 10.1987L10.5038 10.1987H10.5061C10.5995 10.1987 10.6676 10.2259 10.7166 10.2756C10.7665 10.3263 10.8022 10.4063 10.818 10.5225L10.8248 10.572L10.8743 10.5653L11.2573 10.5128L11.309 10.5057L11.2998 10.4543C11.2574 10.2206 11.1691 10.0391 11.0303 9.91615C10.8913 9.79305 10.7073 9.73387 10.4839 9.73371C10.3545 9.7292 10.2258 9.75472 10.1079 9.8083C9.98973 9.86197 9.88566 9.94233 9.80386 10.043C9.63541 10.2474 9.5527 10.5044 9.55255 10.8104C9.54397 11.0816 9.62428 11.3483 9.78127 11.5696L9.78126 11.5696L9.7817 11.5702C9.93834 11.7843 10.1632 11.8905 10.4493 11.8907C10.6489 11.8965 10.8438 11.8298 10.9978 11.7028L10.9978 11.7028L10.9983 11.7025C11.1513 11.5736 11.251 11.3785 11.3021 11.1241L11.3129 11.0701L11.2581 11.0645L10.8751 11.0255Z" fill="white" stroke="white" stroke-width="0.1"/>
<path id="Vector_10" d="M12.8568 11.1211L12.8168 11.1156L12.803 11.1536C12.7668 11.2532 12.7154 11.324 12.6506 11.3702C12.586 11.4163 12.504 11.4408 12.4016 11.4406L12.4016 11.4406L12.3998 11.4407C12.3094 11.4438 12.2208 11.4156 12.1488 11.3609L12.1488 11.3608C12.0869 11.3138 12.0408 11.2491 12.0165 11.1753C11.9937 11.091 11.9816 11.0043 11.9802 10.9171H13.281H13.331V10.8671L13.331 10.8171L13.331 10.8169C13.3293 10.5063 13.2502 10.2474 13.0898 10.0442C12.9268 9.83762 12.6947 9.73613 12.4005 9.73613C12.099 9.73613 11.8564 9.83874 11.679 10.0467C11.5034 10.2525 11.417 10.5113 11.417 10.8191C11.417 11.1418 11.503 11.4036 11.68 11.5987C11.857 11.7938 12.0907 11.8904 12.3761 11.8906C12.5907 11.8984 12.8017 11.8337 12.975 11.707L12.975 11.707L12.9755 11.7067C13.1312 11.5901 13.2444 11.4258 13.2981 11.2389L13.314 11.1834L13.2568 11.1756L12.8568 11.1211ZM12.5345 10.1779C12.581 10.1983 12.6229 10.2278 12.6578 10.2646C12.7245 10.3385 12.7643 10.4321 12.7716 10.5305L11.9867 10.5283C12.0009 10.4275 12.0446 10.3326 12.1128 10.2561C12.1487 10.2206 12.1912 10.1926 12.238 10.1736C12.2852 10.1545 12.3358 10.145 12.3867 10.1458C12.4376 10.1465 12.4879 10.1575 12.5345 10.1779Z" fill="white" stroke="white" stroke-width="0.1"/>
<path id="Vector_11" d="M14.1354 11.8498H14.1854V11.7998V9.13379V9.08379H14.1354H13.6899H13.6399V9.13379V11.7998V11.8498H13.6899H14.1354Z" fill="white" stroke="white" stroke-width="0.1"/>
</g>
</g>
</g>
</svg>
