<svg width="18" height="18" viewBox="0 0 18 18" fill="none" xmlns="http://www.w3.org/2000/svg">
<g id="Frame" clip-path="url(#clip0_1628_25252)">
<g id="SVGRepo_iconCarrier">
<g id="18. Bill">
<path id="Vector" d="M9 3.9375H10.125C10.2742 3.9375 10.4173 3.87824 10.5227 3.77275C10.6282 3.66726 10.6875 3.52418 10.6875 3.375C10.6875 3.22582 10.6282 3.08274 10.5227 2.97725C10.4173 2.87176 10.2742 2.8125 10.125 2.8125H9.5625C9.5625 2.66332 9.50324 2.52024 9.39775 2.41475C9.29226 2.30926 9.14918 2.25 9 2.25C8.85082 2.25 8.70774 2.30926 8.60225 2.41475C8.49676 2.52024 8.4375 2.66332 8.4375 2.8125V2.91375C8.06548 3.04874 7.75274 3.31018 7.55394 3.65239C7.35515 3.99459 7.28295 4.39577 7.34996 4.78581C7.41698 5.17585 7.61895 5.52993 7.92057 5.78615C8.22218 6.04237 8.60426 6.18443 9 6.1875C9.14918 6.1875 9.29226 6.24676 9.39775 6.35225C9.50324 6.45774 9.5625 6.60082 9.5625 6.75C9.5625 6.89918 9.50324 7.04226 9.39775 7.14775C9.29226 7.25324 9.14918 7.3125 9 7.3125H7.875C7.72582 7.3125 7.58274 7.37176 7.47725 7.47725C7.37176 7.58274 7.3125 7.72582 7.3125 7.875C7.3125 8.02418 7.37176 8.16726 7.47725 8.27275C7.58274 8.37824 7.72582 8.4375 7.875 8.4375H8.4375C8.4375 8.58668 8.49676 8.72976 8.60225 8.83525C8.70774 8.94074 8.85082 9 9 9C9.14918 9 9.29226 8.94074 9.39775 8.83525C9.50324 8.72976 9.5625 8.58668 9.5625 8.4375V8.33625C9.93452 8.20126 10.2473 7.93982 10.4461 7.59761C10.6449 7.25541 10.7171 6.85423 10.65 6.46419C10.583 6.07415 10.3811 5.72007 10.0794 5.46385C9.77782 5.20763 9.39574 5.06557 9 5.0625C8.85082 5.0625 8.70774 5.00324 8.60225 4.89775C8.49676 4.79226 8.4375 4.64918 8.4375 4.5C8.4375 4.35082 8.49676 4.20774 8.60225 4.10225C8.70774 3.99676 8.85082 3.9375 9 3.9375Z" fill="#14337D"/>
<path id="Vector_2" d="M17.4375 13.5H15.75V1.6875C15.75 1.23995 15.5722 0.810725 15.2557 0.494257C14.9393 0.17779 14.5101 0 14.0625 0L1.6875 0C1.23995 0 0.810725 0.17779 0.494257 0.494257C0.17779 0.810725 0 1.23995 0 1.6875L0 5.0625C0 5.21168 0.0592632 5.35476 0.164752 5.46025C0.270242 5.56574 0.413316 5.625 0.5625 5.625H2.25V16.3125C2.25 16.7601 2.42779 17.1893 2.74426 17.5057C3.06072 17.8222 3.48995 18 3.9375 18H16.3125C16.7601 18 17.1893 17.8222 17.5057 17.5057C17.8222 17.1893 18 16.7601 18 16.3125V14.0625C18 13.9133 17.9407 13.7702 17.8352 13.6648C17.7298 13.5593 17.5867 13.5 17.4375 13.5ZM1.125 1.6875C1.125 1.53832 1.18426 1.39524 1.28975 1.28975C1.39524 1.18426 1.53832 1.125 1.6875 1.125C1.83668 1.125 1.97976 1.18426 2.08525 1.28975C2.19074 1.39524 2.25 1.53832 2.25 1.6875V4.5H1.125V1.6875ZM4.5 14.0625V16.3125C4.49896 16.3873 4.483 16.4612 4.45306 16.5298C4.42312 16.5983 4.37979 16.6602 4.32562 16.7119C4.27576 16.7645 4.21551 16.8061 4.1487 16.8342C4.08188 16.8623 4.00996 16.8762 3.9375 16.875C3.78832 16.875 3.64524 16.8157 3.53975 16.7102C3.43426 16.6048 3.375 16.4617 3.375 16.3125V1.6875C3.37348 1.49561 3.33924 1.30538 3.27375 1.125H14.0625C14.2117 1.125 14.3548 1.18426 14.4602 1.28975C14.5657 1.39524 14.625 1.53832 14.625 1.6875V13.5H5.0625C4.91332 13.5 4.77024 13.5593 4.66475 13.6648C4.55926 13.7702 4.5 13.9133 4.5 14.0625ZM16.875 16.3125C16.874 16.3873 16.858 16.4612 16.8281 16.5298C16.7981 16.5983 16.7548 16.6602 16.7006 16.7119C16.6508 16.7645 16.5905 16.8061 16.5237 16.8342C16.4569 16.8623 16.385 16.8762 16.3125 16.875H5.52938C5.59295 16.6943 5.62528 16.5041 5.625 16.3125V14.625H16.875V16.3125Z" fill="#14337D"/>
<path id="Vector_3" d="M9.5625 10.6875H5.0625C4.91332 10.6875 4.77024 10.7468 4.66475 10.8523C4.55926 10.9577 4.5 11.1008 4.5 11.25C4.5 11.3992 4.55926 11.5423 4.66475 11.6477C4.77024 11.7532 4.91332 11.8125 5.0625 11.8125H9.5625C9.71168 11.8125 9.85476 11.7532 9.96025 11.6477C10.0657 11.5423 10.125 11.3992 10.125 11.25C10.125 11.1008 10.0657 10.9577 9.96025 10.8523C9.85476 10.7468 9.71168 10.6875 9.5625 10.6875Z" fill="#14337D"/>
<path id="Vector_4" d="M12.9375 10.6875H11.8125C11.6633 10.6875 11.5202 10.7468 11.4148 10.8523C11.3093 10.9577 11.25 11.1008 11.25 11.25C11.25 11.3992 11.3093 11.5423 11.4148 11.6477C11.5202 11.7532 11.6633 11.8125 11.8125 11.8125H12.9375C13.0867 11.8125 13.2298 11.7532 13.3352 11.6477C13.4407 11.5423 13.5 11.3992 13.5 11.25C13.5 11.1008 13.4407 10.9577 13.3352 10.8523C13.2298 10.7468 13.0867 10.6875 12.9375 10.6875Z" fill="#14337D"/>
</g>
</g>
</g>
<defs>
<clipPath id="clip0_1628_25252">
<rect width="18" height="18" fill="white"/>
</clipPath>
</defs>
</svg>
