<svg width="22" height="22" viewBox="0 0 22 22" fill="none" xmlns="http://www.w3.org/2000/svg">
<g id="Plus / 24 / Outline">
<path id="Vector" d="M17.4165 10.0833H11.9165V4.58329C11.9165 4.34018 11.8199 4.10702 11.648 3.93511C11.4761 3.7632 11.243 3.66663 10.9998 3.66663C10.7567 3.66663 10.5236 3.7632 10.3517 3.93511C10.1797 4.10702 10.0832 4.34018 10.0832 4.58329V10.0833H4.58317C4.34006 10.0833 4.1069 10.1799 3.93499 10.3518C3.76308 10.5237 3.6665 10.7568 3.6665 11C3.6665 11.2431 3.76308 11.4762 3.93499 11.6481C4.1069 11.82 4.34006 11.9166 4.58317 11.9166H10.0832V17.4166C10.0832 17.6597 10.1797 17.8929 10.3517 18.0648C10.5236 18.2367 10.7567 18.3333 10.9998 18.3333C11.243 18.3333 11.4761 18.2367 11.648 18.0648C11.8199 17.8929 11.9165 17.6597 11.9165 17.4166V11.9166H17.4165C17.6596 11.9166 17.8928 11.82 18.0647 11.6481C18.2366 11.4762 18.3332 11.2431 18.3332 11C18.3332 10.7568 18.2366 10.5237 18.0647 10.3518C17.8928 10.1799 17.6596 10.0833 17.4165 10.0833Z" fill="#8AA3AF"/>
</g>
</svg>
