<svg width="18" height="18" viewBox="0 0 18 18" fill="none" xmlns="http://www.w3.org/2000/svg">
<g id="Reload / 24 / Outline">
<path id="Vector" d="M14.9325 11.6325H11.535C11.3361 11.6325 11.1453 11.7115 11.0047 11.8522C10.864 11.9928 10.785 12.1836 10.785 12.3825C10.785 12.5814 10.864 12.7722 11.0047 12.9128C11.1453 13.0535 11.3361 13.1325 11.535 13.1325H13.335C12.5077 13.997 11.4408 14.5945 10.2714 14.848C9.10194 15.1016 7.88341 14.9997 6.77233 14.5554C5.66126 14.1112 4.7084 13.3448 4.03619 12.3549C3.36398 11.3649 3.00313 10.1966 3 9C3 8.80109 2.92098 8.61032 2.78033 8.46967C2.63968 8.32902 2.44891 8.25 2.25 8.25C2.05109 8.25 1.86032 8.32902 1.71967 8.46967C1.57902 8.61032 1.5 8.80109 1.5 9C1.50396 10.4646 1.93667 11.896 2.7447 13.1175C3.55274 14.3391 4.70075 15.2973 6.04706 15.8739C7.39336 16.4506 8.87905 16.6204 10.3208 16.3625C11.7625 16.1046 13.0971 15.4302 14.16 14.4225V15.75C14.16 15.9489 14.239 16.1397 14.3797 16.2803C14.5203 16.421 14.7111 16.5 14.91 16.5C15.1089 16.5 15.2997 16.421 15.4403 16.2803C15.581 16.1397 15.66 15.9489 15.66 15.75V12.375C15.6581 12.1812 15.5814 11.9957 15.4457 11.8573C15.3101 11.7189 15.1262 11.6383 14.9325 11.6325ZM9 1.5C7.07729 1.50548 5.23012 2.24919 3.84 3.5775V2.25C3.84 2.05109 3.76098 1.86032 3.62033 1.71967C3.47968 1.57902 3.28891 1.5 3.09 1.5C2.89109 1.5 2.70032 1.57902 2.55967 1.71967C2.41902 1.86032 2.34 2.05109 2.34 2.25V5.625C2.34 5.82391 2.41902 6.01468 2.55967 6.15533C2.70032 6.29598 2.89109 6.375 3.09 6.375H6.465C6.66391 6.375 6.85468 6.29598 6.99533 6.15533C7.13598 6.01468 7.215 5.82391 7.215 5.625C7.215 5.42609 7.13598 5.23532 6.99533 5.09467C6.85468 4.95402 6.66391 4.875 6.465 4.875H4.665C5.49185 4.0109 6.55807 3.41362 7.7268 3.15983C8.89553 2.90604 10.1134 3.00731 11.2242 3.45065C12.335 3.89398 13.2879 4.65916 13.9607 5.64795C14.6335 6.63675 14.9954 7.80404 15 9C15 9.19891 15.079 9.38968 15.2197 9.53033C15.3603 9.67098 15.5511 9.75 15.75 9.75C15.9489 9.75 16.1397 9.67098 16.2803 9.53033C16.421 9.38968 16.5 9.19891 16.5 9C16.5 8.01508 16.306 7.03981 15.9291 6.12987C15.5522 5.21993 14.9997 4.39314 14.3033 3.6967C13.6069 3.00026 12.7801 2.44781 11.8701 2.0709C10.9602 1.69399 9.98491 1.5 9 1.5Z" fill="#5F4D3F"/>
</g>
</svg>
