<svg width="20" height="20" viewBox="0 0 20 20" fill="none" xmlns="http://www.w3.org/2000/svg">
<g id="Frame">
<g id="SVGRepo_iconCarrier">
<path id="Vector" d="M6.04166 6.66667C6.04166 7.01184 6.32148 7.29167 6.66666 7.29167C7.01183 7.29167 7.29166 7.01184 7.29166 6.66667H6.04166ZM12.7083 6.66667C12.7083 7.01184 12.9882 7.29167 13.3333 7.29167C13.6785 7.29167 13.9583 7.01184 13.9583 6.66667H12.7083ZM7.29166 9.16667C7.29166 8.8215 7.01183 8.54167 6.66666 8.54167C6.32148 8.54167 6.04166 8.8215 6.04166 9.16667H7.29166ZM6.04166 9.175C6.04166 9.52017 6.32148 9.8 6.66666 9.8C7.01183 9.8 7.29166 9.52017 7.29166 9.175H6.04166ZM13.9583 9.16667C13.9583 8.8215 13.6785 8.54167 13.3333 8.54167C12.9882 8.54167 12.7083 8.8215 12.7083 9.16667H13.9583ZM12.7083 9.175C12.7083 9.52017 12.9882 9.8 13.3333 9.8C13.6785 9.8 13.9583 9.52017 13.9583 9.175H12.7083ZM5.80118 7.29167H14.1988V6.04167H5.80118V7.29167ZM15.2357 8.23457L15.8707 14.9012L17.1151 14.7827L16.4802 8.11607L15.2357 8.23457ZM14.8337 16.0417H5.16627V17.2917H14.8337V16.0417ZM4.12929 14.9012L4.76421 8.23457L3.51984 8.11607L2.88492 14.7827L4.12929 14.9012ZM5.16627 16.0417C4.55195 16.0417 4.07105 15.5127 4.12929 14.9012L2.88492 14.7827C2.75678 16.1282 3.81477 17.2917 5.16627 17.2917V16.0417ZM15.8707 14.9012C15.9289 15.5127 15.4481 16.0417 14.8337 16.0417V17.2917C16.1852 17.2917 17.2432 16.1282 17.1151 14.7827L15.8707 14.9012ZM14.1988 7.29167C14.7358 7.29167 15.1848 7.69995 15.2357 8.23457L16.4802 8.11607C16.3682 6.9399 15.3803 6.04167 14.1988 6.04167V7.29167ZM5.80118 6.04167C4.6197 6.04167 3.63186 6.9399 3.51984 8.11607L4.76421 8.23457C4.81512 7.69995 5.26414 7.29167 5.80118 7.29167V6.04167ZM7.29166 5.83333C7.29166 4.33756 8.50424 3.125 9.99999 3.125V1.875C7.81387 1.875 6.04166 3.64721 6.04166 5.83333H7.29166ZM9.99999 3.125C11.4957 3.125 12.7083 4.33756 12.7083 5.83333H13.9583C13.9583 3.64721 12.1862 1.875 9.99999 1.875V3.125ZM6.04166 5.83333V6.66667H7.29166V5.83333H6.04166ZM12.7083 5.83333V6.66667H13.9583V5.83333H12.7083ZM6.04166 9.16667V9.175H7.29166V9.16667H6.04166ZM12.7083 9.16667V9.175H13.9583V9.16667H12.7083Z" fill="white"/>
</g>
</g>
</svg>
