<svg width="24" height="24" viewBox="0 0 24 24" fill="none" xmlns="http://www.w3.org/2000/svg">
<g id="Frame">
<g id="SVGRepo_iconCarrier">
<g id="Vector">
<path d="M11.8079 18.7695L8.09345 14.3121C7.65923 13.7911 8.02975 13 8.70802 13H15.292C15.9702 13 16.3408 13.7911 15.9065 14.3121L12.1921 18.7695C12.0921 18.8895 11.9079 18.8895 11.8079 18.7695Z" fill="#14337D"/>
<path d="M11.8079 18.7695L8.09345 14.3121C7.65923 13.7911 8.02975 13 8.70802 13H15.292C15.9702 13 16.3408 13.7911 15.9065 14.3121L12.1921 18.7695C12.0921 18.8895 11.9079 18.8895 11.8079 18.7695Z" fill="black" fill-opacity="0.2"/>
</g>
</g>
<g id="SVGRepo_iconCarrier_2">
<path id="Vector_2" d="M12.1921 6.08988L15.9066 10.5473C16.3408 11.0683 15.9703 11.8594 15.292 11.8594L8.70801 11.8594C8.02981 11.8594 7.65921 11.0683 8.09351 10.5473L11.8079 6.08988C11.9079 5.96988 12.0921 5.96988 12.1921 6.08988Z" fill="#747D8B"/>
</g>
</g>
</svg>
