<svg width="20" height="20" viewBox="0 0 20 20" fill="none" xmlns="http://www.w3.org/2000/svg">
<g id="Frame">
<g id="SVGRepo_iconCarrier">
<path id="Vector" fill-rule="evenodd" clip-rule="evenodd" d="M9.99984 1.04163C10.1823 1.04163 10.3557 1.12135 10.4743 1.25988L12.9743 4.17655C13.199 4.43863 13.1687 4.83319 12.9066 5.05783C12.6445 5.28247 12.2499 5.25212 12.0253 4.99003L10.6248 3.35616V12.5C10.6248 12.8451 10.345 13.125 9.99984 13.125C9.65467 13.125 9.37484 12.8451 9.37484 12.5V3.35616L7.97437 4.99003C7.74974 5.25212 7.35517 5.28247 7.0931 5.05783C6.83101 4.83319 6.80066 4.43863 7.0253 4.17655L9.52534 1.25988C9.644 1.12135 9.81742 1.04163 9.99984 1.04163ZM5.8297 6.87659C6.17486 6.87468 6.45624 7.15293 6.45816 7.49811C6.46009 7.84328 6.18182 8.12465 5.83665 8.12658C4.9254 8.13165 4.2795 8.15531 3.7893 8.24536C3.31695 8.33212 3.04355 8.47146 2.84068 8.67429C2.61005 8.90496 2.45967 9.22879 2.37746 9.84021C2.29283 10.4697 2.2915 11.304 2.2915 12.5001V13.3335C2.2915 14.5296 2.29283 15.3639 2.37746 15.9934C2.45967 16.6049 2.61005 16.9286 2.84068 17.1593C3.07131 17.39 3.39512 17.5403 4.0066 17.6225C4.63606 17.7071 5.47032 17.7085 6.6665 17.7085H13.3332C14.5293 17.7085 15.3636 17.7071 15.9931 17.6225C16.6046 17.5403 16.9283 17.39 17.159 17.1593C17.3897 16.9286 17.54 16.6049 17.6223 15.9934C17.7068 15.3639 17.7082 14.5296 17.7082 13.3335V12.5001C17.7082 11.304 17.7068 10.4697 17.6223 9.84021C17.54 9.22879 17.3897 8.90496 17.159 8.67429C16.9561 8.47146 16.6828 8.33212 16.2104 8.24536C15.7202 8.15531 15.0743 8.13165 14.163 8.12658C13.8178 8.12465 13.5396 7.84328 13.5415 7.49811C13.5434 7.15293 13.8248 6.87468 14.17 6.87659C15.0713 6.88161 15.8224 6.90318 16.4362 7.01593C17.0678 7.13195 17.6054 7.35298 18.0429 7.79043C18.5445 8.29203 18.7603 8.92363 18.8611 9.67371C18.9582 10.3961 18.9582 11.3148 18.9582 12.4544V13.3792C18.9582 14.5189 18.9582 15.4375 18.8611 16.16C18.7603 16.91 18.5445 17.5415 18.0429 18.0432C17.5413 18.5448 16.9098 18.7605 16.1597 18.8614C15.4372 18.9585 14.5186 18.9585 13.3789 18.9585H6.62078C5.48112 18.9585 4.56252 18.9585 3.84005 18.8614C3.08995 18.7605 2.4584 18.5448 1.9568 18.0432C1.4552 17.5415 1.23945 16.91 1.1386 16.16C1.04147 15.4375 1.04149 14.5189 1.0415 13.3792V12.4544C1.04149 11.3147 1.04147 10.3961 1.1386 9.67371C1.23945 8.92363 1.4552 8.29203 1.9568 7.79043C2.39424 7.35298 2.9318 7.13195 3.56346 7.01593C4.17726 6.90318 4.92842 6.88161 5.8297 6.87659Z" fill="#8AA3AF"/>
</g>
</g>
</svg>
