<svg width="24" height="24" viewBox="0 0 24 24" fill="#abb4c9" xmlns="http://www.w3.org/2000/svg">
<g id="SVGRepo_iconCarrier">
<path id="Vector" d="M9.00098 10C11.2101 10 13.001 8.20914 13.001 6C13.001 3.79086 11.2101 2 9.00098 2C6.79184 2 5.00098 3.79086 5.00098 6C5.00098 8.20914 6.79184 10 9.00098 10Z" />
<path id="Vector_2" d="M9.00098 21.001C12.867 21.001 16.001 19.2101 16.001 17.001C16.001 14.7918 12.867 13.001 9.00098 13.001C5.13498 13.001 2.00098 14.7918 2.00098 17.001C2.00098 19.2101 5.13498 21.001 9.00098 21.001Z" />
<path id="Vector_3" d="M20.9995 17.001C20.9995 18.6578 18.964 20.0009 16.4787 20.0009C17.2109 19.2006 17.7144 18.196 17.7144 17.0023C17.7144 15.8073 17.2097 14.8018 16.4761 14.001C18.9614 14.001 20.9995 15.3441 20.9995 17.001Z" />
<path id="Vector_4" d="M17.9996 6.00098C17.9996 7.65784 16.6565 9.00098 14.9996 9.00098C14.6383 9.00098 14.292 8.93712 13.9712 8.82006C14.4443 7.98797 14.7145 7.02547 14.7145 5.99987C14.7145 4.97502 14.4447 4.01319 13.9722 3.18152C14.2927 3.06471 14.6387 3.00098 14.9996 3.00098C16.6565 3.00098 17.9996 4.34413 17.9996 6.00098Z"/>
</g>
</svg>
