<svg width="16" height="16" viewBox="0 0 16 16" fill="none" xmlns="http://www.w3.org/2000/svg">
<g id="Frame">
<g id="SVGRepo_iconCarrier">
<path id="Vector" opacity="0.4" d="M7.99992 14.6663C11.6818 14.6663 14.6666 11.6815 14.6666 7.99967C14.6666 4.31777 11.6818 1.33301 7.99992 1.33301C4.31802 1.33301 1.33325 4.31777 1.33325 7.99967C1.33325 11.6815 4.31802 14.6663 7.99992 14.6663Z" fill="#1C274C"/>
<path id="Vector_2" d="M8 9.16634C8.27333 9.16634 8.5 8.93967 8.5 8.66634V5.33301C8.5 5.05967 8.27333 4.83301 8 4.83301C7.72667 4.83301 7.5 5.05967 7.5 5.33301V8.66634C7.5 8.93967 7.72667 9.16634 8 9.16634Z" fill="#1C274C"/>
<path id="Vector_3" d="M8.61325 10.4129C8.57992 10.3329 8.53325 10.2596 8.47325 10.1929C8.40659 10.1329 8.33325 10.0863 8.25325 10.0529C8.09325 9.98626 7.90659 9.98626 7.74659 10.0529C7.66659 10.0863 7.59325 10.1329 7.52659 10.1929C7.46659 10.2596 7.41992 10.3329 7.38659 10.4129C7.35325 10.4929 7.33325 10.5796 7.33325 10.6663C7.33325 10.7529 7.35325 10.8396 7.38659 10.9196C7.41992 11.0063 7.46659 11.0729 7.52659 11.1396C7.59325 11.1996 7.66659 11.2463 7.74659 11.2796C7.82659 11.3129 7.91325 11.3329 7.99992 11.3329C8.08659 11.3329 8.17325 11.3129 8.25325 11.2796C8.33325 11.2463 8.40659 11.1996 8.47325 11.1396C8.53325 11.0729 8.57992 11.0063 8.61325 10.9196C8.64659 10.8396 8.66659 10.7529 8.66659 10.6663C8.66659 10.5796 8.64659 10.4929 8.61325 10.4129Z" fill="#1C274C"/>
</g>
</g>
</svg>
