<svg width="20" height="20" viewBox="0 0 20 20" fill="none" xmlns="http://www.w3.org/2000/svg">
<g id="Icons">
<g id="SVGRepo_iconCarrier">
<path id="Vector" d="M6.875 5.625C8.94607 5.625 10.625 4.78553 10.625 3.75C10.625 2.71447 8.94607 1.875 6.875 1.875C4.80393 1.875 3.125 2.71447 3.125 3.75C3.125 4.78553 4.80393 5.625 6.875 5.625Z" stroke="white" stroke-miterlimit="10" stroke-linecap="round" stroke-linejoin="round"/>
<path id="Vector_2" d="M3.125 3.75V6.25C3.125 7.3125 4.8125 8.125 6.875 8.125C8.9375 8.125 10.625 7.3125 10.625 6.25V3.75" stroke="white" stroke-miterlimit="10" stroke-linecap="round" stroke-linejoin="round"/>
<path id="Vector_3" d="M3.125 6.25V8.75C3.125 9.8125 4.8125 10.625 6.875 10.625C8.9375 10.625 10.625 9.8125 10.625 8.75V6.25" stroke="white" stroke-miterlimit="10" stroke-linecap="round" stroke-linejoin="round"/>
<path id="Vector_4" d="M3.125 8.75V11.25C3.125 12.3125 4.8125 13.125 6.875 13.125C8.9375 13.125 10.625 12.3125 10.625 11.25V8.75" stroke="white" stroke-miterlimit="10" stroke-linecap="round" stroke-linejoin="round"/>
<path id="Vector_5" d="M3.125 11.25V13.75C3.125 14.8125 4.8125 15.625 6.875 15.625C8.9375 15.625 10.625 14.8125 10.625 13.75V11.25" stroke="white" stroke-miterlimit="10" stroke-linecap="round" stroke-linejoin="round"/>
<path id="Vector_6" d="M3.125 13.75V16.25C3.125 17.3125 4.8125 18.125 6.875 18.125C8.9375 18.125 10.625 17.3125 10.625 16.25V13.75" stroke="white" stroke-miterlimit="10" stroke-linecap="round" stroke-linejoin="round"/>
<path id="Vector_7" d="M10.625 13.875C11.3125 14.1875 12.1875 14.375 13.125 14.375C15.1875 14.375 16.875 13.5625 16.875 12.5V10" stroke="white" stroke-miterlimit="10" stroke-linecap="round" stroke-linejoin="round"/>
<path id="Vector_8" d="M10.625 8.625C11.3125 8.3125 12.1875 8.125 13.125 8.125C15.1875 8.125 16.875 8.9375 16.875 10C16.875 11.0625 15.1875 11.875 13.125 11.875C12.1875 11.875 11.3125 11.6875 10.625 11.375" stroke="white" stroke-miterlimit="10" stroke-linecap="round" stroke-linejoin="round"/>
<path id="Vector_9" d="M10.625 16.375C11.3125 16.6875 12.1875 16.875 13.125 16.875C15.1875 16.875 16.875 16.0625 16.875 15V12.5" stroke="white" stroke-miterlimit="10" stroke-linecap="round" stroke-linejoin="round"/>
</g>
</g>
</svg>
